<?xml version="1.0"?>
<svg xmlns="http://www.w3.org/2000/svg" viewBox="0 0 50 50">
    <path style="text-indent:0;text-align:start;line-height:normal;text-transform:none;block-progression:tb;-inkscape-font-specification:Sans" d="M 12.8125 2 A 1.0001 1.0001 0 0 0 12 3 L 12 47 A 1.0001 1.0001 0 0 0 13.5 47.875 L 25 41.15625 L 36.5 47.875 A 1.0001 1.0001 0 0 0 38 47 L 38 3 A 1.0001 1.0001 0 0 0 37 2 L 13 2 A 1.0001 1.0001 0 0 0 12.90625 2 A 1.0001 1.0001 0 0 0 12.8125 2 z M 14 4 L 36 4 L 36 45.25 L 25.5 39.125 A 1.0001 1.0001 0 0 0 24.5 39.125 L 14 45.25 L 14 4 z" overflow="visible" font-family="Sans"/>
</svg>
